<svg width="104" height="31" viewBox="0 0 104 31" fill="none" xmlns="http://www.w3.org/2000/svg">
<g id="logo-dark.svg" clip-path="url(#clip0_1_10)">
<path id="Vector" d="M40.872 15.074C41.647 14.634 42.267 14.086 42.719 13.44C43.2327 12.7097 43.5044 11.8368 43.496 10.944C43.496 9.222 42.852 7.877 41.583 6.948C40.329 6.028 38.604 5.563 36.454 5.563H28.68V25.514H36.765C39.029 25.514 40.842 24.988 42.153 23.949C43.474 22.901 44.145 21.434 44.145 19.587C44.145 18.462 43.829 17.495 43.208 16.712C42.651 16.012 41.866 15.462 40.872 15.074ZM32.887 9.159H36.116C37.129 9.159 37.893 9.356 38.39 9.742C38.88 10.122 39.12 10.624 39.12 11.272C39.12 11.922 38.88 12.448 38.39 12.831C37.893 13.217 37.129 13.413 36.116 13.413H32.887V9.159ZM38.966 21.242C38.406 21.691 37.551 21.918 36.426 21.918H32.887V17.036H36.427C37.551 17.036 38.407 17.256 38.969 17.686C39.526 18.116 39.796 18.683 39.796 19.422C39.796 20.2 39.525 20.795 38.966 21.242ZM49.83 10.595H45.594V25.513H49.829L49.83 10.595ZM91.661 12.84C90.9829 12.0361 90.1284 11.3995 89.164 10.98C88.178 10.543 87.069 10.321 85.87 10.321C84.4 10.321 83.074 10.655 81.927 11.313C80.7928 11.9586 79.8559 12.901 79.217 14.039C78.566 15.189 78.237 16.521 78.237 18C78.237 19.48 78.557 20.9 79.187 22.067C79.8026 23.22 80.7409 24.1687 81.887 24.797C83.044 25.436 84.403 25.76 85.927 25.76C87.797 25.76 89.384 25.29 90.647 24.361C91.862 23.468 92.697 22.209 93.153 20.631H88.889C88.665 21.168 88.349 21.625 87.896 21.947C87.361 22.327 86.67 22.519 85.842 22.519C85.124 22.519 84.508 22.345 84.012 22.001C83.515 21.656 83.135 21.148 82.885 20.487C82.7253 20.0527 82.6182 19.6008 82.566 19.141H93.227L93.248 19.009C93.438 17.806 93.39 16.666 93.104 15.621C92.8305 14.6 92.3381 13.6507 91.661 12.839V12.84ZM82.634 16.38C82.6987 16.0709 82.7873 15.7674 82.899 15.472C83.159 14.802 83.534 14.288 84.015 13.944C84.494 13.599 85.09 13.426 85.786 13.426C86.659 13.426 87.376 13.709 87.916 14.266C88.429 14.796 88.719 15.52 88.781 16.379L82.634 16.38ZM49.918 5.563H45.506V9.159H49.918V5.563ZM73.11 12.288C72.6326 11.7051 72.0359 11.2312 71.36 10.898C70.57 10.515 69.645 10.321 68.611 10.321C67.346 10.321 66.211 10.634 65.241 11.248C64.271 11.863 63.501 12.731 62.956 13.827C62.411 14.921 62.135 16.205 62.135 17.645C62.135 19.085 62.425 20.294 62.999 21.395C63.574 22.5 64.371 23.38 65.368 24.012C66.366 24.645 67.505 24.967 68.753 24.967C69.695 24.967 70.556 24.763 71.31 24.36C71.8912 24.0538 72.3995 23.6257 72.8 23.105V24.729C72.8 25.736 72.536 26.509 72.016 27.024C71.494 27.539 70.7 27.799 69.656 27.799C68.756 27.799 68.049 27.595 67.554 27.192C67.149 26.862 66.795 26.43 66.713 25.514H62.629C62.667 26.796 63.043 27.659 63.575 28.416C64.17 29.263 65.008 29.926 66.068 30.384C67.116 30.836 68.334 31.066 69.684 31.066C71.952 31.066 73.757 30.496 75.049 29.373C76.349 28.244 77.007 26.663 77.007 24.675V10.595H73.111L73.11 12.288ZM72.365 19.627C72.1196 20.1557 71.7282 20.6032 71.237 20.917C70.757 21.217 70.177 21.371 69.515 21.371C68.555 21.371 67.81 21.044 67.235 20.373C66.661 19.704 66.37 18.786 66.37 17.644C66.37 16.502 66.66 15.584 67.234 14.915C67.803 14.253 68.57 13.917 69.514 13.917C70.459 13.917 71.293 14.257 71.88 14.93C72.472 15.609 72.772 16.531 72.772 17.67C72.772 18.409 72.635 19.066 72.365 19.626V19.627ZM103.502 14.164V10.596H100.445V5.563H96.238V10.596H93.627V14.164H96.238V20.004C96.238 23.251 96.878 25.637 100.864 25.563L103.367 25.513V22.17H102.125C100.353 22.17 100.452 21.137 100.452 19.218L100.445 14.165L103.502 14.164ZM61.106 14.164V10.596H58.049V5.563H53.842V10.596H51.23V14.164H53.84V20.004C53.84 23.251 54.48 25.637 58.467 25.563L60.969 25.513V22.17H59.73C57.958 22.17 58.056 21.137 58.056 19.218L58.049 14.165L61.106 14.164ZM11.06 9.159H17.413L23.912 15.616C24.335 16.036 24.337 16.72 23.916 17.142L15.581 25.519H9.03802L11.017 23.595L18.281 16.377L11.109 9.158" fill="#00F0FF"/>
<path id="Vector_2" d="M13.67 16.36H7.31897L0.818972 9.903C0.718386 9.80313 0.638482 9.68441 0.583833 9.55363C0.529184 9.42285 0.500864 9.28257 0.500492 9.14083C0.50012 8.99909 0.527705 8.85867 0.581668 8.7276C0.63563 8.59653 0.714911 8.47739 0.814972 8.377L9.14997 0H15.694L13.716 1.924L6.44997 9.142L13.623 16.36" fill="#00F0FF"/>
</g>
<defs>
<clipPath id="clip0_1_10">
<rect width="103" height="31" fill="white" transform="translate(0.5)"/>
</clipPath>
</defs>
</svg>
