<svg width="42" height="16" viewBox="0 0 42 16" fill="none" xmlns="http://www.w3.org/2000/svg">
<path d="M4.55422 2C4.55422 0.89543 5.44965 0 6.55422 0H40C41.1046 0 42 0.895431 42 2V14C42 15.1046 41.1046 16 40 16H2.12637C1.27999 16 0.816348 15.0141 1.35614 14.3622L4.55422 10.5V2Z" fill="#FFD500"/>
<path d="M11.328 3.216L15.588 9.024V3.216H17.208V12H15.792L11.52 6.18V12H9.924V3.216H11.328ZM24.3452 8.292H20.7812V10.476H24.8972V12H19.0412V3.216H24.7652V4.728H20.7812V6.792H24.3452V8.292ZM32.222 3.216L34.046 9.12L35.726 3.216H37.406L34.67 12H33.326L31.478 6.264L29.69 12H28.358L25.502 3.216H27.302L29.102 9.12L30.83 3.216H32.222Z" fill="#0D0E0E"/>
</svg>
